PathFileType	4	(X/Y/Z)	Star.trc	
DataRate	CameraRate	NumFrames	NumMarkers	Units	OrigDataRate	OrigDataStartFrame	OrigNumFrames	
100.00	100.00	31	6	mm	100.00	1207	1362	
Frame#	Time	LThighSuperior			LThighInferior			LThighLateral			LAsis			RAsis			SACR			
		X1	Y1	Z1	X2	Y2	Z2	X3	Y3	Z3	X4	Y4	Z4	X5	Y5	Z5	X6	Y6	Z6	

1022	10.210	45.02886	-15.79683	867.66510	28.49159	-99.16292	746.15137	19.09612	24.17113	759.79895	108.36609	187.65804	979.26599	343.13696	256.54941	925.31384	290.27817	71.69238	1018.73102 
1023	10.220	45.28458	-17.23330	872.81207	27.74144	-103.38704	753.20703	17.59485	20.16769	764.37781	107.35580	188.07565	980.39673	341.79611	257.76471	924.99927	290.21082	73.20375	1019.58801 
1024	10.230	45.43743	-18.62210	877.60278	26.93049	-107.27850	759.87946	16.35097	16.56472	768.71674	106.53273	188.51186	981.50116	340.84595	258.95398	924.99567	290.10043	74.56751	1020.51886 
1025	10.240	45.48669	-19.74133	881.92670	26.22575	-110.63081	766.22168	15.30478	13.27045	772.67822	105.95621	188.80316	982.58319	340.36600	260.17651	925.26398	290.15118	75.87032	1021.47711 
1026	10.250	45.52530	-20.50199	885.86005	25.73765	-113.63213	772.12305	14.30360	10.31997	776.32928	105.29372	188.99857	983.49060	339.55359	261.29108	925.16913	290.10114	77.07835	1022.21680 
1027	10.260	45.61249	-21.02868	889.39990	25.41219	-116.35966	777.57214	13.34182	7.66798	779.65369	104.59995	189.28732	984.24469	337.52588	261.87869	924.05499	289.86179	78.10838	1022.70691 
1028	10.270	45.73950	-21.31497	892.59253	25.10985	-118.53152	782.57520	12.41727	5.25412	782.66174	103.82294	189.81610	984.90894	336.27457	261.86237	923.75867	289.71695	79.11929	1022.99713 
1029	10.280	45.90481	-21.48509	895.50568	24.79657	-120.39784	787.07739	11.45492	3.37140	785.44586	103.39947	190.16377	985.44305	335.38489	262.16336	923.49579	289.69208	80.07218	1023.19678 
1030	10.290	46.08666	-21.73145	898.05469	24.56106	-122.16463	791.04517	10.58269	1.83154	787.96490	103.37618	190.25563	985.77979	334.88101	262.59760	923.27966	289.63998	80.82800	1023.46124 
1031	10.300	46.24675	-21.93742	900.20844	24.24418	-123.61637	794.47107	9.90855	0.37263	790.12982	103.18417	190.46169	985.94604	334.58496	263.00140	923.05884	289.58649	81.34183	1023.70361 
1032	10.310	46.30260	-21.87978	901.91180	23.73700	-124.52968	797.23541	9.42808	-0.76034	791.78522	102.95203	190.80478	986.06128	334.45050	263.49518	922.79523	289.55145	81.74219	1023.83008 
1033	10.320	46.23508	-21.62865	903.08130	23.27391	-124.99846	799.30249	9.06556	-1.42240	793.00018	102.81607	191.21252	986.18475	334.33267	263.93079	922.54260	289.50983	82.16525	1023.84540 
1034	10.330	46.10525	-21.38031	903.86877	22.94192	-125.32912	800.67865	8.69728	-1.64939	793.87970	102.64399	191.57014	986.27124	334.04428	264.01627	922.34796	289.57346	82.48035	1023.76233 
1035	10.340	45.91929	-21.11205	904.31268	22.54688	-125.52772	801.38477	8.38273	-1.59936	794.34015	102.44010	191.84760	986.28784	333.78210	263.98654	922.17255	289.71576	82.62606	1023.61053 
1036	10.350	45.65974	-20.83372	904.36810	21.90530	-125.43497	801.61664	8.16703	-1.41833	794.36713	102.25859	192.08566	986.26239	333.66919	264.01166	922.02106	289.81519	82.67579	1023.41803 
1037	10.360	45.31427	-20.57072	904.08722	21.19591	-124.98701	801.34467	7.97744	-1.00496	793.96149	102.11418	192.31293	986.18982	333.63748	263.97815	921.92365	289.90039	82.63605	1023.21954 
1038	10.370	44.89688	-20.22066	903.48871	20.81911	-124.25937	800.42883	7.80874	-0.42417	793.18011	102.02044	192.52724	986.00641	333.88025	264.09399	921.89648	289.97742	82.54262	1023.05035 
1039	10.380	44.41455	-19.71755	902.56067	20.56417	-123.37911	798.98615	7.86836	0.29670	792.08337	102.01588	192.69702	985.71161	334.58237	264.58511	921.93732	290.00842	82.41238	1022.90222 
1040	10.390	43.90765	-19.02566	901.26959	20.05231	-122.22332	797.12500	8.12540	1.49237	790.66010	102.14593	192.87265	985.37189	334.72614	264.07791	922.00867	289.96069	82.19969	1022.74225 
1041	10.400	43.50605	-18.17562	899.64893	19.59338	-120.68246	794.81067	8.38819	3.14586	788.97290	102.38233	193.12498	985.00586	335.48074	264.27701	922.08636	289.85568	81.97168	1022.53876 
1042	10.410	43.18525	-17.27074	897.76898	19.42232	-118.86868	792.08350	8.73369	5.05971	787.13416	102.66472	193.44322	984.58575	336.87457	264.16656	923.19275	289.77536	81.68060	1022.28705 
1043	10.420	42.76952	-16.31849	895.69995	19.35686	-116.75935	789.03223	9.18137	7.14596	785.09094	102.95900	193.82137	984.08020	337.23947	263.59512	923.34106	289.68765	81.27498	1022.06958 
1044	10.430	42.26778	-15.27574	893.43579	19.34902	-114.44963	785.57782	9.71961	9.41075	782.75323	103.27067	194.28163	983.49902	337.43274	262.90964	923.16705	289.48022	80.85104	1021.83972 
1045	10.440	41.82489	-14.13585	890.92511	19.32570	-112.10191	781.76013	10.39262	12.01638	780.19366	103.65267	194.75217	982.86224	338.14691	262.45380	923.24591	289.15088	80.34490	1021.45374 
1046	10.450	41.40498	-12.82304	888.18427	19.35702	-109.34383	777.61346	11.22128	14.81260	777.40967	104.11437	195.13187	982.18304	339.21030	262.19580	923.56909	288.87454	79.75935	1021.01215 
1047	10.460	40.88736	-11.33802	885.20538	19.59229	-106.07724	773.10400	12.18144	17.78373	774.41168	104.67831	195.51492	981.47198	340.47052	261.93475	924.09460	288.81732	79.17729	1020.68121 
1048	10.470	40.29185	-9.73720	881.91241	19.94794	-102.67258	768.30048	13.22895	21.12003	771.20996	105.37836	196.00430	980.75342	341.85608	261.45129	924.65979	288.85303	78.59131	1020.38116 
1049	10.480	39.67950	-7.97001	878.30328	20.33735	-99.02711	763.00970	14.34083	24.63443	767.73645	106.12160	196.56754	980.00391	343.19937	260.71335	925.10364	288.78958	77.95169	1020.02130 
1050	10.490	39.01424	-6.01800	874.45544	20.63247	-94.91341	757.18829	16.20441	29.13871	763.53790	106.89826	197.21216	979.20386	344.54626	259.88010	925.44562	288.65298	77.09872	1019.62128 
1051	10.500	38.29899	-3.83837	870.28430	20.93946	-90.44111	751.04224	17.57600	33.53216	759.83875	107.77245	197.89966	978.43420	345.99841	259.00168	925.80048	288.53778	76.17638	1019.09369 
1052	10.510	37.56845	-1.38309	865.65540	21.41815	-85.59643	744.59747	18.98559	38.19943	756.00043	108.71168	198.49362	977.64197	347.46555	258.13394	926.22565	288.43423	75.34241	1018.53748 
